<svg width="60" height="60" viewBox="0 0 60 60" fill="none" xmlns="http://www.w3.org/2000/svg">
<path d="M29.9999 5.61674C24.0636 5.61699 18.3211 7.72953 13.7999 11.5764C9.27861 15.4232 6.2737 20.7533 5.32278 26.613C4.37186 32.4726 5.53699 38.4794 8.60969 43.5586C11.6824 48.6378 16.4622 52.458 22.0937 54.3355C23.3437 54.5543 23.8125 53.8043 23.8125 53.148C23.8125 52.5542 23.7812 50.5855 23.7812 48.4917C17.4999 49.648 15.8749 46.9606 15.3749 45.5543C14.8201 44.1866 13.9406 42.9746 12.8124 42.023C11.9374 41.5542 10.6874 40.398 12.7812 40.3668C13.5806 40.4535 14.3474 40.7317 15.0165 41.1778C15.6856 41.6238 16.2374 42.2246 16.6249 42.9292C16.9669 43.5435 17.4266 44.0842 17.9779 44.5205C18.5292 44.9567 19.1611 45.2799 19.8375 45.4715C20.5139 45.6631 21.2215 45.7193 21.9196 45.637C22.6178 45.5547 23.2929 45.3354 23.9061 44.9917C24.0144 43.7208 24.5808 42.5325 25.4999 41.6481C19.9374 41.0231 14.1249 38.8667 14.1249 29.3043C14.0898 26.8197 15.0067 24.4158 16.6874 22.5856C15.9232 20.4261 16.0126 18.0563 16.9374 15.9606C16.9374 15.9606 19.0311 15.3043 23.8124 18.5231C27.9032 17.398 32.2217 17.398 36.3124 18.5231C41.0936 15.2731 43.1874 15.9606 43.1874 15.9606C44.1124 18.0563 44.2019 20.4261 43.4374 22.5856C45.1233 24.4126 46.0409 26.8186 45.9999 29.3043C45.9999 38.898 40.1561 41.0231 34.5937 41.6481C35.1903 42.2528 35.6498 42.9788 35.941 43.7768C36.2322 44.5749 36.3482 45.4262 36.2812 46.2731C36.2812 49.6169 36.2499 52.3043 36.2499 53.1481C36.2499 53.8043 36.7187 54.5856 37.9687 54.3356C43.5903 52.4427 48.3564 48.6137 51.416 43.5319C54.4756 38.4501 55.6297 32.4463 54.6721 26.5923C53.7146 20.7384 50.7079 15.4152 46.1886 11.573C41.6693 7.73087 35.9317 5.61983 29.9999 5.61674Z" fill="white"/>
</svg>
