<svg width="40" height="40" viewBox="0 0 40 40" fill="none" xmlns="http://www.w3.org/2000/svg">
<path d="M17.3333 4C14.388 4 12 6.388 12 9.33333V10.6667H18.6667C19.4027 10.6667 20 11.264 20 12C20 12.736 19.4027 13.3333 18.6667 13.3333H12H10.6667H9.33333C6.388 13.3333 4 15.7213 4 18.6667V24C4 26.9453 6.388 29.3333 9.33333 29.3333H10.6667V22.6667C10.6667 20.4613 12.4613 18.6667 14.6667 18.6667H25.3333C26.0693 18.6667 26.6667 18.0693 26.6667 17.3333V9.33333C26.6667 6.388 24.2787 4 21.3333 4H17.3333ZM16 6.66667C16.736 6.66667 17.3333 7.264 17.3333 8C17.3333 8.736 16.736 9.33333 16 9.33333C15.264 9.33333 14.6667 8.736 14.6667 8C14.6667 7.264 15.264 6.66667 16 6.66667ZM29.3333 10.6667V17.3333C29.3333 19.5387 27.5387 21.3333 25.3333 21.3333H14.6667C13.9307 21.3333 13.3333 21.9307 13.3333 22.6667V30.6667C13.3333 33.612 15.7213 36 18.6667 36H22.6667C25.612 36 28 33.612 28 30.6667V29.3333H21.3333C20.5973 29.3333 20 28.736 20 28C20 27.264 20.5973 26.6667 21.3333 26.6667H28H29.3333H30.6667C33.612 26.6667 36 24.2787 36 21.3333V16C36 13.0547 33.612 10.6667 30.6667 10.6667H29.3333ZM24 30.6667C24.736 30.6667 25.3333 31.264 25.3333 32C25.3333 32.736 24.736 33.3333 24 33.3333C23.264 33.3333 22.6667 32.736 22.6667 32C22.6667 31.264 23.264 30.6667 24 30.6667Z" fill="white"/>
<rect x="0.5" y="0.5" width="39" height="39" rx="7.5" stroke="white"/>
</svg>
