<svg width="60" height="60" viewBox="0 0 60 60" fill="none" xmlns="http://www.w3.org/2000/svg">
<path d="M47.5 10H12.5C10.5109 10 8.60322 10.7902 7.1967 12.1967C5.79018 13.6032 5 15.5109 5 17.5V42.5C5 44.4891 5.79018 46.3968 7.1967 47.8033C8.60322 49.2098 10.5109 50 12.5 50H47.5C49.4891 50 51.3968 49.2098 52.8033 47.8033C54.2098 46.3968 55 44.4891 55 42.5V17.5C55 15.5109 54.2098 13.6032 52.8033 12.1967C51.3968 10.7902 49.4891 10 47.5 10ZM46.475 15L31.775 29.7C31.5426 29.9343 31.2661 30.1203 30.9614 30.2472C30.6568 30.3741 30.33 30.4395 30 30.4395C29.67 30.4395 29.3432 30.3741 29.0386 30.2472C28.7339 30.1203 28.4574 29.9343 28.225 29.7L13.525 15H46.475ZM50 42.5C50 43.163 49.7366 43.7989 49.2678 44.2678C48.7989 44.7366 48.163 45 47.5 45H12.5C11.837 45 11.2011 44.7366 10.7322 44.2678C10.2634 43.7989 10 43.163 10 42.5V18.525L24.7 33.225C26.1063 34.6295 28.0125 35.4184 30 35.4184C31.9875 35.4184 33.8937 34.6295 35.3 33.225L50 18.525V42.5Z" fill="white"/>
</svg>
