<svg width="60" height="60" viewBox="0 0 60 60" fill="none" xmlns="http://www.w3.org/2000/svg">
<path d="M51.175 5H8.82502C8.34897 4.99339 7.87628 5.08062 7.43394 5.25671C6.9916 5.4328 6.58828 5.6943 6.24702 6.02628C5.90575 6.35826 5.63323 6.75421 5.445 7.19152C5.25678 7.62884 5.15655 8.09894 5.15002 8.575V51.425C5.15655 51.9011 5.25678 52.3712 5.445 52.8085C5.63323 53.2458 5.90575 53.6417 6.24702 53.9737C6.58828 54.3057 6.9916 54.5672 7.43394 54.7433C7.87628 54.9194 8.34897 55.0066 8.82502 55H51.175C51.6511 55.0066 52.1238 54.9194 52.5661 54.7433C53.0084 54.5672 53.4118 54.3057 53.753 53.9737C54.0943 53.6417 54.3668 53.2458 54.555 52.8085C54.7433 52.3712 54.8435 51.9011 54.85 51.425V8.575C54.8435 8.09894 54.7433 7.62884 54.555 7.19152C54.3668 6.75421 54.0943 6.35826 53.753 6.02628C53.4118 5.6943 53.0084 5.4328 52.5661 5.25671C52.1238 5.08062 51.6511 4.99339 51.175 5ZM20.225 46.85H12.725V24.35H20.225V46.85ZM16.475 21.2C15.4407 21.2 14.4487 20.7891 13.7173 20.0577C12.9859 19.3263 12.575 18.3343 12.575 17.3C12.575 16.2657 12.9859 15.2737 13.7173 14.5423C14.4487 13.8109 15.4407 13.4 16.475 13.4C17.0243 13.3377 17.5805 13.3921 18.1072 13.5597C18.634 13.7273 19.1194 14.0042 19.5317 14.3724C19.944 14.7406 20.2738 15.1917 20.4997 15.6962C20.7256 16.2007 20.8423 16.7472 20.8423 17.3C20.8423 17.8528 20.7256 18.3993 20.4997 18.9038C20.2738 19.4083 19.944 19.8594 19.5317 20.2276C19.1194 20.5958 18.634 20.8727 18.1072 21.0403C17.5805 21.2079 17.0243 21.2623 16.475 21.2ZM47.275 46.85H39.775V34.775C39.775 31.75 38.7 29.775 35.975 29.775C35.1317 29.7812 34.3105 30.0457 33.6221 30.5329C32.9337 31.0202 32.4112 31.7067 32.125 32.5C31.9294 33.0876 31.8446 33.7064 31.875 34.325V46.825H24.375C24.375 46.825 24.375 26.375 24.375 24.325H31.875V27.5C32.5564 26.3178 33.5473 25.3438 34.7411 24.683C35.935 24.0222 37.2864 23.6996 38.65 23.75C43.65 23.75 47.275 26.975 47.275 33.9V46.85Z" fill="white"/>
</svg>
