<svg width="40" height="40" viewBox="0 0 40 40" fill="none" xmlns="http://www.w3.org/2000/svg">
<path d="M35.6833 14.4C35.6833 14.4 35.6833 14.4 35.6833 14.3167C34.509 11.1104 32.3782 8.34214 29.5792 6.38644C26.7801 4.43074 23.4479 3.38196 20.0333 3.38196C16.6188 3.38196 13.2866 4.43074 10.4875 6.38644C7.68848 8.34214 5.55767 11.1104 4.38334 14.3167C4.38334 14.3167 4.38334 14.3167 4.38334 14.4C3.07188 18.0182 3.07188 21.9818 4.38334 25.6C4.38334 25.6 4.38334 25.6 4.38334 25.6833C5.55767 28.8896 7.68848 31.6579 10.4875 33.6136C13.2866 35.5693 16.6188 36.6181 20.0333 36.6181C23.4479 36.6181 26.7801 35.5693 29.5792 33.6136C32.3782 31.6579 34.509 28.8896 35.6833 25.6833C35.6833 25.6833 35.6833 25.6833 35.6833 25.6C36.9948 21.9818 36.9948 18.0182 35.6833 14.4ZM7.1 23.3333C6.52205 21.1487 6.52205 18.8513 7.1 16.6667H10.2C9.93339 18.8809 9.93339 21.1191 10.2 23.3333H7.1ZM8.46667 26.6667H10.8C11.1912 28.1531 11.7504 29.5901 12.4667 30.95C10.8322 29.8366 9.46583 28.3734 8.46667 26.6667ZM10.8 13.3333H8.46667C9.45145 11.6318 10.8003 10.1691 12.4167 9.05C11.7176 10.4121 11.1752 11.849 10.8 13.3333ZM18.3333 32.8333C16.2863 31.3311 14.8486 29.1421 14.2833 26.6667H18.3333V32.8333ZM18.3333 23.3333H13.5667C13.2557 21.122 13.2557 18.878 13.5667 16.6667H18.3333V23.3333ZM18.3333 13.3333H14.2833C14.8486 10.858 16.2863 8.66887 18.3333 7.16667V13.3333ZM31.5333 13.3333H29.2C28.8088 11.8469 28.2496 10.4099 27.5333 9.05C29.1678 10.1635 30.5342 11.6266 31.5333 13.3333ZM21.6667 7.16667C23.7137 8.66887 25.1514 10.858 25.7167 13.3333H21.6667V7.16667ZM21.6667 32.8333V26.6667H25.7167C25.1514 29.1421 23.7137 31.3311 21.6667 32.8333ZM26.4333 23.3333H21.6667V16.6667H26.4333C26.7444 18.878 26.7444 21.122 26.4333 23.3333ZM27.5833 30.95C28.2996 29.5901 28.8588 28.1531 29.25 26.6667H31.5833C30.5842 28.3734 29.2178 29.8366 27.5833 30.95ZM32.9 23.3333H29.8C29.9356 22.2274 30.0023 21.1142 30 20C30.0018 18.8858 29.935 17.7726 29.8 16.6667H32.9C33.478 18.8513 33.478 21.1487 32.9 23.3333Z" fill="white"/>
<rect x="0.5" y="0.5" width="39" height="39" rx="7.5" stroke="white"/>
</svg>
