<svg width="40" height="40" viewBox="0 0 40 40" fill="none" xmlns="http://www.w3.org/2000/svg">
<path d="M13.9523 12.9375V30H10.4484V12.9375H13.9523ZM19.2023 12.9375V15.6914H5.28046V12.9375H19.2023ZM29.9016 25.5352C29.9016 25.2305 29.8547 24.957 29.7609 24.7148C29.675 24.4648 29.5109 24.2383 29.2687 24.0352C29.0266 23.8242 28.6867 23.6172 28.2492 23.4141C27.8117 23.2109 27.2453 23 26.55 22.7812C25.7766 22.5312 25.0422 22.25 24.3469 21.9375C23.6594 21.625 23.05 21.2617 22.5187 20.8477C21.9953 20.4258 21.5812 19.9375 21.2766 19.3828C20.9797 18.8281 20.8312 18.1836 20.8312 17.4492C20.8312 16.7383 20.9875 16.0938 21.3 15.5156C21.6125 14.9297 22.05 14.4297 22.6125 14.0156C23.175 13.5938 23.8391 13.2695 24.6047 13.043C25.3781 12.8164 26.2258 12.7031 27.1476 12.7031C28.4055 12.7031 29.5031 12.9297 30.4406 13.3828C31.3781 13.8359 32.1047 14.457 32.6203 15.2461C33.1437 16.0352 33.4055 16.9375 33.4055 17.9531H29.9133C29.9133 17.4531 29.8078 17.0156 29.5969 16.6406C29.3937 16.2578 29.0812 15.957 28.6594 15.7383C28.2453 15.5195 27.7219 15.4102 27.0891 15.4102C26.4797 15.4102 25.9719 15.5039 25.5656 15.6914C25.1594 15.8711 24.8547 16.1172 24.6516 16.4297C24.4484 16.7344 24.3469 17.0781 24.3469 17.4609C24.3469 17.75 24.4172 18.0117 24.5578 18.2461C24.7062 18.4805 24.925 18.6992 25.2141 18.9023C25.5031 19.1055 25.8586 19.2969 26.2805 19.4766C26.7023 19.6562 27.1906 19.832 27.7453 20.0039C28.675 20.2852 29.4914 20.6016 30.1945 20.9531C30.9055 21.3047 31.4992 21.6992 31.9758 22.1367C32.4523 22.5742 32.8117 23.0703 33.0539 23.625C33.2961 24.1797 33.4172 24.8086 33.4172 25.5117C33.4172 26.2539 33.2726 26.918 32.9836 27.5039C32.6945 28.0898 32.2766 28.5859 31.7297 28.9922C31.1828 29.3984 30.5305 29.707 29.7726 29.918C29.0148 30.1289 28.1672 30.2344 27.2297 30.2344C26.3859 30.2344 25.5539 30.125 24.7336 29.9062C23.9133 29.6797 23.1672 29.3398 22.4953 28.8867C21.8312 28.4336 21.3 27.8555 20.9016 27.1523C20.5031 26.4492 20.3039 25.6172 20.3039 24.6562H23.8312C23.8312 25.1875 23.9133 25.6367 24.0773 26.0039C24.2414 26.3711 24.4719 26.668 24.7687 26.8945C25.0734 27.1211 25.4328 27.2852 25.8469 27.3867C26.2687 27.4883 26.7297 27.5391 27.2297 27.5391C27.8391 27.5391 28.3391 27.4531 28.7297 27.2812C29.1281 27.1094 29.4211 26.8711 29.6086 26.5664C29.8039 26.2617 29.9016 25.918 29.9016 25.5352Z" fill="white"/>
<rect x="0.5" y="0.5" width="39" height="39" rx="7.5" stroke="white"/>
</svg>
